<svg width="144" height="52" viewBox="0 0 144 52" fill="none" xmlns="http://www.w3.org/2000/svg">
<circle cx="35.8976" cy="42.7324" r="8.92913" fill="url(#paint0_radial_574_4769)" fill-opacity="0.5"/>
<path fill-rule="evenodd" clip-rule="evenodd" d="M35.83 45.2834C38.9647 41.7062 40.8647 37.0198 40.8647 31.8898C40.8647 26.7597 38.9647 22.0733 35.83 18.4961C32.6953 22.0733 30.7953 26.7597 30.7953 31.8898C30.7953 37.0198 32.6953 41.7062 35.83 45.2834Z" fill="url(#paint1_linear_574_4769)" fill-opacity="0.9"/>
<path d="M35.8977 17.8583C35.8977 22.0535 37.3747 26.1148 40.0696 29.3299C42.7645 32.5451 46.5052 34.7089 50.6359 35.4419C54.7666 36.1748 59.0235 35.4301 62.66 33.3384C66.2966 31.2467 69.0807 27.9415 70.524 24.0024L53.756 17.8583H35.8977Z" fill="url(#paint2_linear_574_4769)"/>
<path d="M35.8977 17.8583C35.8977 22.0535 34.4207 26.1148 31.7258 29.3299C29.031 32.5451 25.2902 34.7089 21.1595 35.4419C17.0288 36.1748 12.7719 35.4301 9.13537 33.3384C5.49881 31.2467 2.71474 27.9415 1.27138 24.0024L18.0394 17.8583H35.8977Z" fill="url(#paint3_linear_574_4769)"/>
<path d="M35.8976 17.8582C35.8976 20.5552 36.8471 23.166 38.5795 25.2329C40.312 27.2998 42.7168 28.6908 45.3722 29.162C48.0276 29.6332 50.7642 29.1545 53.102 27.8098C55.4398 26.4651 57.2295 24.3403 58.1574 21.8081L47.378 17.8582H35.8976Z" fill="url(#paint4_linear_574_4769)"/>
<path d="M35.8976 17.8582C35.8976 20.5552 34.9482 23.166 33.2157 25.2329C31.4833 27.2998 29.0785 28.6908 26.4231 29.162C23.7676 29.6332 21.0311 29.1545 18.6933 27.8098C16.3555 26.4651 14.5657 24.3403 13.6379 21.8081L24.4173 17.8582H35.8976Z" fill="url(#paint5_linear_574_4769)"/>
<rect x="30.7953" y="11.5466" width="1.91339" height="3.82677" rx="0.956693" transform="rotate(-21.5947 30.7953 11.5466)" fill="#D9D9D9"/>
<rect x="39.8037" y="10.8479" width="1.91339" height="3.82677" rx="0.956693" transform="rotate(20.1554 39.8037 10.8479)" fill="#D9D9D9"/>
<path d="M84.3899 18.4218L85.6043 17.085V23.6058L84.7675 22.8813H90.9108V25.0345H84.7675L85.6043 24.2589V31.3308H82.9307V16.2788H91.819V18.4218H84.3899ZM93.6635 31.3308V20.4934H96.3167V31.3308H93.6635ZM95.0003 18.4933C94.5649 18.4933 94.1839 18.3776 93.8574 18.1463C93.5376 17.9082 93.3778 17.5782 93.3778 17.1564C93.3778 16.7415 93.5376 16.4183 93.8574 16.187C94.1839 15.9557 94.5649 15.84 95.0003 15.84C95.4289 15.84 95.8031 15.9557 96.1228 16.187C96.4426 16.4183 96.6024 16.7415 96.6024 17.1564C96.6024 17.5782 96.4426 17.9082 96.1228 18.1463C95.8031 18.3776 95.4289 18.4933 95.0003 18.4933ZM98.5681 31.3308V20.4934H101.252V24.0957L100.629 23.7487C100.698 23.2793 100.823 22.8371 101.007 22.4221C101.191 22.0003 101.436 21.6329 101.742 21.32C102.048 21.0002 102.419 20.7519 102.854 20.575C103.29 20.3981 103.786 20.3097 104.344 20.3097C104.786 20.3097 105.133 20.3437 105.385 20.4118C105.643 20.473 105.803 20.524 105.865 20.5648L105.375 23.0242C105.307 22.9765 105.167 22.9187 104.956 22.8507C104.752 22.7759 104.477 22.7384 104.13 22.7384C103.579 22.7384 103.116 22.8337 102.742 23.0242C102.374 23.2079 102.082 23.4596 101.864 23.7793C101.647 24.0923 101.49 24.4392 101.395 24.8202C101.3 25.1944 101.252 25.5685 101.252 25.9427V31.3308H98.5681ZM107.95 26.7795V24.8712H115.532L115.226 25.3815C115.226 25.3406 115.226 25.2964 115.226 25.2488C115.226 25.1944 115.226 25.1501 115.226 25.1161C115.226 24.6467 115.12 24.2079 114.909 23.7997C114.698 23.3847 114.379 23.0514 113.95 22.7997C113.521 22.5411 112.977 22.4119 112.317 22.4119C111.664 22.4119 111.096 22.5513 110.613 22.8303C110.137 23.1024 109.766 23.497 109.501 24.014C109.242 24.5311 109.113 25.1501 109.113 25.8713C109.113 26.6128 109.239 27.2523 109.491 27.7898C109.742 28.3204 110.11 28.7286 110.593 29.0143C111.082 29.2933 111.678 29.4327 112.378 29.4327C112.855 29.4327 113.266 29.3885 113.613 29.3001C113.96 29.2116 114.243 29.0926 114.46 28.9429C114.685 28.7864 114.851 28.6198 114.96 28.4429C115.076 28.266 115.144 28.0891 115.164 27.9122H117.838C117.797 28.368 117.644 28.8136 117.379 29.249C117.12 29.6776 116.756 30.0688 116.287 30.4226C115.817 30.7696 115.246 31.0485 114.572 31.2594C113.906 31.4635 113.144 31.5655 112.287 31.5655C111.123 31.5655 110.106 31.3274 109.235 30.8512C108.365 30.375 107.684 29.7117 107.194 28.8613C106.711 28.0109 106.47 27.038 106.47 25.9427C106.47 24.8202 106.715 23.8371 107.205 22.9936C107.701 22.15 108.388 21.4935 109.266 21.024C110.144 20.5478 111.151 20.3097 112.287 20.3097C113.457 20.3097 114.467 20.5478 115.317 21.024C116.175 21.5003 116.835 22.1636 117.297 23.014C117.76 23.8576 117.991 24.8406 117.991 25.9631C117.991 26.106 117.988 26.2591 117.981 26.4223C117.974 26.5856 117.964 26.7047 117.95 26.7795H107.95ZM121.032 31.3308V22.6364H118.736V20.4934H121.032V19.5239C121.032 18.8913 121.117 18.3368 121.287 17.8606C121.457 17.3776 121.689 16.9694 121.981 16.636C122.274 16.3027 122.607 16.0339 122.981 15.8298C123.362 15.6189 123.767 15.4659 124.196 15.3706C124.631 15.2754 125.063 15.2278 125.492 15.2278C125.9 15.2278 126.209 15.2516 126.42 15.2992C126.638 15.3468 126.784 15.3876 126.859 15.4216V17.585C126.777 17.5578 126.635 17.5272 126.431 17.4932C126.233 17.4524 126.019 17.432 125.788 17.432C125.373 17.432 125.029 17.4932 124.757 17.6157C124.485 17.7313 124.274 17.8946 124.124 18.1055C123.975 18.3164 123.869 18.5613 123.808 18.8402C123.747 19.1124 123.716 19.4117 123.716 19.7382V20.4934H126.716V22.6364H123.716V31.3308H121.032ZM131.257 15.3808V31.3308H128.614V15.3808H131.257ZM134.302 35.9842C133.983 35.9842 133.697 35.9672 133.445 35.9331C133.193 35.9059 133.037 35.8787 132.976 35.8515V33.7595C133.064 33.8004 133.214 33.831 133.425 33.8514C133.642 33.8786 133.867 33.8922 134.098 33.8922C134.472 33.8922 134.796 33.8174 135.068 33.6677C135.347 33.518 135.585 33.3105 135.782 33.0452C135.979 32.7867 136.136 32.4839 136.251 32.137L136.486 31.4533L132.751 20.4934H135.558L138.119 29.5348H137.792L140.293 20.4934H143.048L139.252 31.9941C138.986 32.7901 138.663 33.4874 138.282 34.0861C137.908 34.6848 137.408 35.1508 136.782 35.4841C136.156 35.8175 135.33 35.9842 134.302 35.9842Z" fill="#FFB950"/>
<defs>
<radialGradient id="paint0_radial_574_4769" cx="0" cy="0" r="1" gradientUnits="userSpaceOnUse" gradientTransform="translate(35.8976 42.7324) rotate(90) scale(8.92913)">
<stop stop-color="#EBB15B"/>
<stop offset="1" stop-color="#EBB15B" stop-opacity="0"/>
</radialGradient>
<linearGradient id="paint1_linear_574_4769" x1="35.8977" y1="45.2835" x2="35.8977" y2="18.4961" gradientUnits="userSpaceOnUse">
<stop stop-color="white"/>
<stop offset="1" stop-color="white" stop-opacity="0.1"/>
</linearGradient>
<linearGradient id="paint2_linear_574_4769" x1="35.8977" y1="17.8583" x2="69.7009" y2="31.8898" gradientUnits="userSpaceOnUse">
<stop stop-color="#EBB15B"/>
<stop offset="0.473958" stop-color="#EBB15B" stop-opacity="0.458333"/>
<stop offset="1" stop-color="#EBB15B" stop-opacity="0"/>
</linearGradient>
<linearGradient id="paint3_linear_574_4769" x1="35.8977" y1="17.8583" x2="2.09454" y2="31.8898" gradientUnits="userSpaceOnUse">
<stop stop-color="#EBB15B"/>
<stop offset="0.473958" stop-color="#EBB15B" stop-opacity="0.458333"/>
<stop offset="1" stop-color="#EBB15B" stop-opacity="0"/>
</linearGradient>
<linearGradient id="paint4_linear_574_4769" x1="35.8976" y1="17.8582" x2="57.6282" y2="26.8785" gradientUnits="userSpaceOnUse">
<stop stop-color="#EBB15B"/>
<stop offset="0.0729167" stop-color="#FED66F" stop-opacity="0.916667"/>
<stop offset="0.473958" stop-color="#EBB15B" stop-opacity="0.458333"/>
<stop offset="1" stop-color="#EBB15B" stop-opacity="0"/>
</linearGradient>
<linearGradient id="paint5_linear_574_4769" x1="35.8976" y1="17.8582" x2="14.167" y2="26.8785" gradientUnits="userSpaceOnUse">
<stop stop-color="#EBB15B"/>
<stop offset="0.0729167" stop-color="#FED66F" stop-opacity="0.916667"/>
<stop offset="0.473958" stop-color="#EBB15B" stop-opacity="0.458333"/>
<stop offset="1" stop-color="#EBB15B" stop-opacity="0"/>
</linearGradient>
</defs>
</svg>
